<svg width="178" height="31" viewBox="0 0 178 31" fill="none" xmlns="http://www.w3.org/2000/svg">
<g clip-path="url(#clip0_33_22)">
<path d="M10.8 14.6L3.1 27H7.3C11.4 27 11.7 26.8 14.9 21.3C18.6 15.2 18.2 15.2 22.4 21.5C23.2 22.6 24.1 23.2 24.5 22.8C25.1 22.2 19.4 12 18.5 12C18.3 12 16.3 14.9 14.1 18.5C11.8 22.1 9.5 25 8.9 25C8.3 25 8.1 24.3 8.4 23.3C9.2 21.3 18.1 7 18.6 7C19.1 7 29 23.3 29 24.2C29 24.6 27.3 25 25.2 25C22.1 25 21.1 24.5 20 22.5C19.2 21 18.3 20.3 17.7 20.9C17.2 21.4 17.5 22.8 18.5 24.4C20.1 26.8 20.8 27 27.1 27H33.9L26.3 14.7C22.2 8 18.7 2.4 18.6 2.3C18.5 2.2 15 7.7 10.8 14.6Z" fill="#444444"/>
</g>
<path d="M56.2266 21.7773H50.5762L49.502 25H46.0752L51.8975 9.35938H54.8838L60.7383 25H57.3115L56.2266 21.7773ZM51.4463 19.167H55.3564L53.3906 13.3125L51.4463 19.167ZM64.3906 13.377L64.4873 14.6768C65.3109 13.667 66.4245 13.1621 67.8281 13.1621C69.3249 13.1621 70.3525 13.7529 70.9111 14.9346C71.7275 13.7529 72.8913 13.1621 74.4023 13.1621C75.6628 13.1621 76.6009 13.5309 77.2168 14.2686C77.8327 14.999 78.1406 16.1019 78.1406 17.5771V25H75.0254V17.5879C75.0254 16.929 74.8965 16.4492 74.6387 16.1484C74.3809 15.8405 73.9261 15.6865 73.2744 15.6865C72.3434 15.6865 71.6989 16.1305 71.3408 17.0186L71.3516 25H68.2471V17.5986C68.2471 16.9255 68.1146 16.4385 67.8496 16.1377C67.5846 15.8369 67.1335 15.6865 66.4961 15.6865C65.6152 15.6865 64.9779 16.0518 64.584 16.7822V25H61.4795V13.377H64.3906ZM90.999 19.2959C90.999 21.0863 90.5908 22.5221 89.7744 23.6035C88.9652 24.6777 87.8695 25.2148 86.4873 25.2148C85.3128 25.2148 84.3639 24.8066 83.6406 23.9902V29.4688H80.5361V13.377H83.415L83.5225 14.5156C84.2744 13.6133 85.2555 13.1621 86.4658 13.1621C87.8981 13.1621 89.0117 13.6921 89.8066 14.752C90.6016 15.8118 90.999 17.2728 90.999 19.1348V19.2959ZM87.8945 19.0703C87.8945 17.9889 87.7012 17.1546 87.3145 16.5674C86.9349 15.9801 86.3799 15.6865 85.6494 15.6865C84.6755 15.6865 84.0059 16.0589 83.6406 16.8037V21.5625C84.0202 22.3288 84.6969 22.7119 85.6709 22.7119C87.1533 22.7119 87.8945 21.498 87.8945 19.0703ZM96.209 25H93.0938V8.5H96.209V25ZM104.126 25.2148C102.422 25.2148 101.032 24.6921 99.958 23.6465C98.891 22.6009 98.3574 21.208 98.3574 19.4678V19.167C98.3574 17.9997 98.583 16.9577 99.0342 16.041C99.4854 15.1172 100.123 14.4082 100.946 13.9141C101.777 13.4128 102.722 13.1621 103.782 13.1621C105.372 13.1621 106.622 13.6634 107.531 14.666C108.448 15.6686 108.906 17.0902 108.906 18.9307V20.1982H101.505C101.605 20.9574 101.906 21.5661 102.407 22.0244C102.916 22.4827 103.557 22.7119 104.33 22.7119C105.526 22.7119 106.461 22.2786 107.134 21.4121L108.659 23.1201C108.194 23.779 107.563 24.2946 106.769 24.667C105.974 25.0322 105.093 25.2148 104.126 25.2148ZM103.771 15.6758C103.156 15.6758 102.654 15.8835 102.268 16.2988C101.888 16.7142 101.645 17.3086 101.537 18.082H105.855V17.835C105.841 17.1475 105.655 16.6175 105.297 16.2451C104.939 15.8656 104.43 15.6758 103.771 15.6758ZM125.256 20.6172H118.155L116.544 25H115.158L121.077 9.35938H122.334L128.253 25H126.878L125.256 20.6172ZM118.563 19.4893H124.837L121.7 10.9707L118.563 19.4893ZM129.746 19.0811C129.746 17.2764 130.147 15.8405 130.949 14.7734C131.758 13.6992 132.854 13.1621 134.236 13.1621C135.805 13.1621 137.001 13.7816 137.824 15.0205V8.5H139.103V25H137.899L137.846 23.4531C137.022 24.6276 135.812 25.2148 134.215 25.2148C132.876 25.2148 131.794 24.6777 130.971 23.6035C130.154 22.5221 129.746 21.0648 129.746 19.2314V19.0811ZM131.046 19.3066C131.046 20.7891 131.343 21.96 131.938 22.8193C132.532 23.6715 133.37 24.0977 134.451 24.0977C136.034 24.0977 137.158 23.3994 137.824 22.0029V16.5459C137.158 15.0348 136.041 14.2793 134.473 14.2793C133.391 14.2793 132.55 14.7054 131.948 15.5576C131.347 16.4027 131.046 17.6523 131.046 19.3066ZM143.657 13.377L143.7 15.2676C144.13 14.5658 144.667 14.0394 145.312 13.6885C145.956 13.3376 146.672 13.1621 147.46 13.1621C149.293 13.1621 150.457 13.9141 150.951 15.418C151.367 14.6947 151.922 14.1396 152.616 13.7529C153.311 13.359 154.077 13.1621 154.915 13.1621C157.407 13.1621 158.678 14.5228 158.729 17.2441V25H157.439V17.3408C157.432 16.3024 157.207 15.5326 156.763 15.0312C156.326 14.5299 155.61 14.2793 154.614 14.2793C153.69 14.2936 152.91 14.5944 152.272 15.1816C151.635 15.7617 151.281 16.4707 151.209 17.3086V25H149.92V17.2441C149.913 16.2487 149.676 15.5075 149.211 15.0205C148.753 14.5264 148.044 14.2793 147.084 14.2793C146.275 14.2793 145.58 14.512 145 14.9775C144.42 15.4359 143.99 16.1198 143.711 17.0293V25H142.422V13.377H143.657ZM163.434 25H162.145V13.377H163.434V25ZM161.919 10.0146C161.919 9.77116 161.998 9.56706 162.155 9.40234C162.313 9.23047 162.528 9.14453 162.8 9.14453C163.072 9.14453 163.287 9.23047 163.444 9.40234C163.609 9.56706 163.691 9.77116 163.691 10.0146C163.691 10.2581 163.609 10.4622 163.444 10.627C163.287 10.7917 163.072 10.874 162.8 10.874C162.528 10.874 162.313 10.7917 162.155 10.627C161.998 10.4622 161.919 10.2581 161.919 10.0146ZM168.16 13.377L168.203 15.3643C168.64 14.6481 169.184 14.1038 169.836 13.7314C170.488 13.3519 171.207 13.1621 171.995 13.1621C173.241 13.1621 174.169 13.513 174.777 14.2148C175.386 14.9167 175.694 15.9694 175.701 17.373V25H174.423V17.3623C174.416 16.3239 174.194 15.5505 173.757 15.042C173.327 14.5335 172.636 14.2793 171.684 14.2793C170.889 14.2793 170.183 14.5299 169.567 15.0312C168.959 15.5254 168.507 16.195 168.214 17.04V25H166.936V13.377H168.16Z" fill="#444444"/>
<defs>
<clipPath id="clip0_33_22">
<rect width="33" height="31" fill="white"/>
</clipPath>
</defs>
</svg>
