<svg width="31" height="25" viewBox="0 0 31 25" fill="none" xmlns="http://www.w3.org/2000/svg">
<path d="M7.7 12.3014L0 24.7014H4.2C8.3 24.7014 8.6 24.5014 11.8 19.0014C15.5 12.9014 15.1 12.9014 19.3 19.2014C20.1 20.3014 21 20.9014 21.4 20.5014C22 19.9014 16.3 9.70135 15.4 9.70135C15.2 9.70135 13.2 12.6014 11 16.2014C8.7 19.8014 6.4 22.7014 5.8 22.7014C5.2 22.7014 5 22.0014 5.3 21.0014C6.1 19.0014 15 4.70135 15.5 4.70135C16 4.70135 25.9 21.0014 25.9 21.9014C25.9 22.3014 24.2 22.7014 22.1 22.7014C19 22.7014 18 22.2014 16.9 20.2014C16.1 18.7014 15.2 18.0014 14.6 18.6014C14.1 19.1014 14.4 20.5014 15.4 22.1014C17 24.5014 17.7 24.7014 24 24.7014H30.8L23.2 12.4014C19.1 5.70135 15.6 0.101355 15.5 0.00135461C15.4 -0.0986454 11.9 5.40135 7.7 12.3014Z" fill="white"/>
</svg>
